<svg width="60" height="33" viewBox="0 0 60 33" fill="none" xmlns="http://www.w3.org/2000/svg">
<path d="M14.2131 0H1.79402C0.803203 0 0 0.812175 0 1.81418V26.0015C0 27.0036 0.803203 27.8158 1.79402 27.8158H8.97199C8.96796 27.73 8.96581 27.6441 8.96555 27.5582C8.96555 24.5525 11.375 22.1161 14.3474 22.1161C17.3197 22.1161 19.7292 24.5525 19.7292 27.5582C19.7292 27.6445 19.7266 27.7301 19.7228 27.8158H41.5793C41.5752 27.73 41.573 27.6441 41.5727 27.5582C41.5727 24.5525 43.9822 22.1161 46.9544 22.1161C49.9269 22.1161 52.3364 24.5525 52.3364 27.5582C52.3364 27.6445 52.3338 27.7301 52.33 27.8158H58.2056C59.1964 27.8158 59.9996 27.0036 59.9996 26.0015V6.36398C59.9981 2.84878 57.1798 0.000118431 53.7033 0.000118431H17.4739" fill="#E30613"/>
<path d="M14.2131 0H1.79402C0.803203 0 0 0.812175 0 1.81418V26.0015C0 27.0036 0.803203 27.8158 1.79402 27.8158H8.97199C8.96796 27.73 8.96581 27.6441 8.96555 27.5582C8.96555 24.5525 11.375 22.1161 14.3474 22.1161C17.3197 22.1161 19.7292 24.5525 19.7292 27.5582C19.7292 27.6445 19.7266 27.7301 19.7228 27.8158H41.5793C41.5752 27.73 41.573 27.6441 41.5727 27.5582C41.5727 24.5525 43.9822 22.1161 46.9544 22.1161C49.9269 22.1161 52.3364 24.5525 52.3364 27.5582C52.3364 27.6445 52.3338 27.7301 52.33 27.8158H58.2056C59.1964 27.8158 59.9996 27.0036 59.9996 26.0015V6.36398C59.9981 2.84878 57.1798 0.000118431 53.7033 0.000118431H17.4739" fill="#E30613"/>
<path d="M23.2722 4.53516H38.1222V27.8153H23.2722V4.53516Z" fill="#97D3EE"/>
<path d="M23.2722 4.53516H30.6974V27.8153H23.2722V4.53516Z" fill="#6CC6E4"/>
<path d="M46.9552 32.9999C49.9274 32.9999 52.3369 30.5635 52.3369 27.558C52.3369 24.5526 49.9274 22.1162 46.9552 22.1162C43.983 22.1162 41.5735 24.5526 41.5735 27.558C41.5735 30.5635 43.983 32.9999 46.9552 32.9999Z" fill="#444444"/>
<path d="M14.3478 32.9999C17.32 32.9999 19.7295 30.5635 19.7295 27.558C19.7295 24.5526 17.32 22.1162 14.3478 22.1162C11.3755 22.1162 8.96606 24.5526 8.96606 27.558C8.96606 30.5635 11.3755 32.9999 14.3478 32.9999Z" fill="#444444"/>
<path d="M46.9552 29.4273C47.9761 29.4273 48.8037 28.5904 48.8037 27.5581C48.8037 26.5258 47.9761 25.689 46.9552 25.689C45.9343 25.689 45.1067 26.5258 45.1067 27.5581C45.1067 28.5904 45.9343 29.4273 46.9552 29.4273Z" fill="#F5F7FA"/>
<path d="M14.3479 29.4271C15.3688 29.4271 16.1963 28.5903 16.1963 27.558C16.1963 26.5258 15.3688 25.689 14.3479 25.689C13.3271 25.689 12.4995 26.5258 12.4995 27.558C12.4995 28.5903 13.3271 29.4271 14.3479 29.4271Z" fill="#F5F7FA"/>
<path d="M23.2722 17.2085H38.1222V27.8152H23.2722V17.2085Z" fill="#A52727"/>
<path d="M23.2722 17.2085H30.6973V27.8152H23.2722V17.2085Z" fill="#A52727"/>
<path d="M52.9521 17.2081H59.9999V5.91016H46.9546V17.2081H49.6913" fill="#97D3EE"/>
<path d="M38.1221 5.91016H46.9538V17.208H38.1221V5.91016Z" fill="#6CC6E4"/>
<path d="M14.3479 5.91016H23.1796V17.208H14.3479V5.91016Z" fill="#97D3EE"/>
<path d="M0 24.0371V20.3628H1.89551C2.8991 20.3628 3.71262 21.1853 3.71262 22.2001C3.71262 23.2148 2.89922 24.0374 1.89551 24.0374H0V24.0371Z" fill="#A52727"/>
<path d="M39.1012 27.8152V17.208C39.1012 16.9456 38.9981 16.694 38.8146 16.5085C38.6312 16.323 38.3824 16.2188 38.1229 16.2188H23.2725C23.013 16.2188 22.7642 16.323 22.5808 16.5085C22.3973 16.694 22.2942 16.9456 22.2942 17.208V27.8154H24.2508V18.1972H37.1448V27.8154H39.1012V27.8152Z" fill="#A52727"/>
<path d="M30.6978 18.1969C30.4383 18.1969 30.1895 18.0927 30.006 17.9072C29.8226 17.7217 29.7195 17.4701 29.7195 17.2077V4.53462C29.7195 4.27226 29.8226 4.02066 30.006 3.83514C30.1895 3.64963 30.4383 3.54541 30.6978 3.54541C30.9572 3.54541 31.206 3.64963 31.3895 3.83514C31.573 4.02066 31.676 4.27226 31.676 4.53462V17.2077C31.676 17.4701 31.5729 17.7216 31.3895 17.9072C31.206 18.0927 30.9572 18.1969 30.6978 18.1969Z" fill="#A52727"/>
<path d="M60.0001 24.0371V20.3628H57.2075C56.204 20.3628 55.3904 21.1853 55.3904 22.2001C55.3904 23.2148 56.2039 24.0374 57.2075 24.0374H60.0001V24.0371Z" fill="#A52727"/>
<path d="M39.1012 27.815V4.53462C39.1012 4.27227 38.9981 4.02068 38.8146 3.83518C38.6312 3.64967 38.3824 3.54544 38.1229 3.54541H23.2725C23.013 3.54544 22.7642 3.64967 22.5808 3.83518C22.3973 4.02068 22.2942 4.27227 22.2942 4.53462V27.815H24.2508V5.52383H37.1448V27.8152H39.1012V27.815Z" fill="#A52727"/>
<path d="M7.08041 5.91016C6.21592 5.91016 5.51514 6.61865 5.51514 7.49291V15.6255C5.51514 16.4995 6.2158 17.2082 7.08041 17.2082H14.3474V5.91027L7.08041 5.91016Z" fill="#6CC6E4"/>
</svg>
