<svg width="32" height="32" viewBox="0 0 32 32" fill="none" xmlns="http://www.w3.org/2000/svg">
<path fill-rule="evenodd" clip-rule="evenodd" d="M8 6.66667C7.64638 6.66667 7.30724 6.80714 7.05719 7.05719C6.80714 7.30724 6.66667 7.64638 6.66667 8V24C6.66667 24.3536 6.80714 24.6928 7.05719 24.9428C7.30724 25.1929 7.64638 25.3333 8 25.3333H24C24.3536 25.3333 24.6928 25.1929 24.9428 24.9428C25.1929 24.6928 25.3333 24.3536 25.3333 24V16C25.3333 15.6464 25.4738 15.3072 25.7239 15.0572C25.9739 14.8071 26.313 14.6667 26.6667 14.6667C27.0203 14.6667 27.3594 14.8071 27.6095 15.0572C27.8595 15.3072 28 15.6464 28 16V24C28 25.0609 27.5786 26.0783 26.8284 26.8284C26.0783 27.5786 25.0609 28 24 28H8C6.93913 28 5.92172 27.5786 5.17157 26.8284C4.42143 26.0783 4 25.0609 4 24V8C4 6.93913 4.42143 5.92172 5.17157 5.17157C5.92172 4.42143 6.93913 4 8 4H21.3333C21.687 4 22.0261 4.14048 22.2761 4.39052C22.5262 4.64057 22.6667 4.97971 22.6667 5.33333C22.6667 5.68696 22.5262 6.02609 22.2761 6.27614C22.0261 6.52619 21.687 6.66667 21.3333 6.66667H8Z" fill="black"/>
<path d="M27.4902 5.42514C27.3276 5.49502 27.1804 5.5966 27.0574 5.72395L16.0001 16.7813L12.9428 13.7239C12.8198 13.5966 12.6727 13.495 12.51 13.4251C12.3473 13.3553 12.1723 13.3185 11.9953 13.3169C11.8183 13.3154 11.6427 13.3491 11.4788 13.4162C11.315 13.4832 11.1661 13.5822 11.0409 13.7074C10.9157 13.8326 10.8167 13.9815 10.7497 14.1453C10.6826 14.3092 10.6489 14.4848 10.6504 14.6618C10.652 14.8389 10.6888 15.0138 10.7586 15.1765C10.8285 15.3392 10.9301 15.4863 11.0574 15.6093L15.0574 19.6093C15.3075 19.8592 15.6466 19.9997 16.0001 19.9997C16.3537 19.9997 16.6927 19.8592 16.9428 19.6093L28.9428 7.60928C29.0701 7.48628 29.1717 7.33916 29.2416 7.17648C29.3115 7.01381 29.3482 6.83885 29.3498 6.66181C29.3513 6.48477 29.3176 6.3092 29.2505 6.14534C29.1835 5.98148 29.0845 5.83261 28.9593 5.70742C28.8341 5.58223 28.6852 5.48322 28.5214 5.41618C28.3575 5.34914 28.1819 5.31541 28.0049 5.31694C27.8279 5.31848 27.6529 5.35527 27.4902 5.42514Z" fill="#E30613"/>
</svg>
