<svg width="50" height="33" viewBox="0 0 50 33" fill="none" xmlns="http://www.w3.org/2000/svg">
<path d="M49.9999 18.5625V21.8625H46.5729C45.132 21.8625 44.4264 20.0773 45.4318 19.0451C45.7241 18.7471 46.1274 18.5625 46.5729 18.5625H49.9999Z" fill="#A52727"/>
<path d="M49.1229 7.94765L45.9103 3.81543H10.1787C8.59734 3.81543 7.23164 4.94671 6.90206 6.52968L6.31143 9.36871C5.86796 11.5013 7.45751 13.5092 9.5882 13.5092H49.9998V10.5155C49.9997 9.58269 49.6906 8.67749 49.1229 7.94765Z" fill="#6CC6E4"/>
<path d="M15.161 3.81543L11.1476 13.5092C9.5661 13.5092 8.55488 13.6651 7.44458 12.7161L11.1295 3.81543H15.161ZM37.7188 3.81543L33.7063 13.5092H29.6747L33.6872 3.81543H37.7188ZM49.9999 10.5155V13.5092H43.619L47.0337 5.26021L49.1229 7.94765C49.6906 8.67751 49.9997 9.58269 49.9999 10.5155ZM25.24 3.81543L21.2266 13.5092H19.2114L23.2242 3.81543H25.24ZM45.8578 3.81543L41.8444 13.5092H40.3331L44.346 3.81543H45.8578Z" fill="#97D3EE"/>
<path d="M36.6956 21.4502C39.813 21.4502 42.3397 24.0355 42.3397 27.2252C42.3397 30.4149 39.8128 33.0002 36.6954 33.0002C33.5779 33.0002 31.0512 30.4149 31.0512 27.2252C31.0512 24.0355 33.5781 21.4502 36.6956 21.4502ZM37.5017 27.2252C37.5017 26.7694 37.1409 26.4002 36.6954 26.4002C36.2499 26.4002 35.889 26.7694 35.889 27.2252C35.889 27.681 36.2499 28.0502 36.6954 28.0502C37.1409 28.0502 37.5017 27.681 37.5017 27.2252ZM12.3045 21.4502C15.4219 21.4502 17.9486 24.0355 17.9486 27.2252C17.9486 30.4149 15.4217 33.0002 12.3043 33.0002C9.18685 33.0002 6.66016 30.4149 6.66016 27.2252C6.66016 24.0355 9.18705 21.4502 12.3045 21.4502ZM13.1106 27.2252C13.1106 26.7694 12.7498 26.4002 12.3043 26.4002C11.8588 26.4002 11.498 26.7694 11.498 27.2252C11.498 27.681 11.8588 28.0502 12.3043 28.0502C12.7498 28.0502 13.1106 27.681 13.1106 27.2252Z" fill="#464646"/>
<path d="M46.5732 18.5625H50.0002V13.5094H40.1229V3.81563H45.9105L44.1553 1.55719C43.7778 1.07155 43.2981 0.679317 42.7518 0.409703C42.2056 0.140089 41.607 4.44103e-05 41.0006 0H4.03999C1.81354 0 0.00830078 1.84697 0.00830078 4.125V23.1C0.00830078 25.378 1.81354 27.225 4.03999 27.225H6.66042C6.66042 24.0364 9.18631 21.45 12.3047 21.45C15.4222 21.45 17.9489 24.0364 17.9489 27.225H31.0515C31.0515 24.0364 33.5774 21.45 36.6958 21.45C39.8133 21.45 42.3399 24.0364 42.3399 27.225H45.9685C48.1949 27.225 50.0002 25.378 50.0002 23.1V21.8625H46.5732C45.6822 21.8625 44.9606 21.1241 44.9606 20.2125C44.9606 19.2998 45.6822 18.5625 46.5732 18.5625ZM16.3365 13.5094H9.58856C7.45786 13.5094 5.86831 11.5015 6.31179 9.36891L6.90241 6.52987C7.232 4.94691 8.59769 3.81563 10.1791 3.81563H16.3366V13.5094H16.3365ZM26.4155 13.5094H17.9492V3.81563H26.4155V13.5094ZM28.0281 13.5094V3.81563H38.5102V13.5094H28.0281Z" fill="#DC0000"/>
<path d="M49.9795 23.5123C49.7779 25.5964 48.0586 27.2248 45.9682 27.2248H42.3397C42.3397 25.8109 41.8427 24.5167 41.0183 23.5123H49.9795ZM8.28984 23.1658C7.28194 24.2094 6.66017 25.6428 6.66017 27.2248H4.03974C1.8133 27.2248 0.00805664 25.3778 0.00805664 23.0998V16.9463L0.515936 17.7094C2.36543 20.4917 5.15629 22.4171 8.28984 23.1658ZM16.6272 23.5123H32.3725C31.5481 24.5167 31.0513 25.8109 31.0513 27.2248H17.9486C17.9486 25.8109 17.4516 24.5167 16.6272 23.5123Z" fill="#DC0000"/>
<path d="M45.9104 3.81563H10.1788C8.59743 3.81563 7.23173 4.94691 6.90215 6.52988C6.26687 9.58361 6.25004 9.57557 6.23784 9.99075C3.74915 9.30353 1.62863 7.94609 0.00813787 6.16894C0.00813787 4.11087 -0.0898297 3.40622 0.394061 2.36363C1.03912 0.966281 2.42921 0 4.03982 0H41.0004C42.229 0 43.3901 0.573375 44.1551 1.55719L45.9104 3.81563Z" fill="#DC0000"/>
<path d="M12.3045 28.8752C11.4154 28.8752 10.6919 28.135 10.6919 27.2252C10.6919 26.3154 11.4154 25.5752 12.3045 25.5752C13.1937 25.5752 13.9172 26.3154 13.9172 27.2252C13.9172 28.135 13.1937 28.8752 12.3045 28.8752ZM36.6956 28.8752C35.8065 28.8752 35.083 28.135 35.083 27.2252C35.083 26.3154 35.8065 25.5752 36.6956 25.5752C37.5848 25.5752 38.3083 26.3154 38.3083 27.2252C38.3083 28.135 37.5848 28.8752 36.6956 28.8752Z" fill="#F5F7FA"/>
<path d="M34.478 18.6656H32.8654C32.6516 18.6656 32.4465 18.5787 32.2952 18.424C32.144 18.2693 32.0591 18.0594 32.0591 17.8406C32.0591 17.6218 32.144 17.412 32.2952 17.2573C32.4465 17.1025 32.6516 17.0156 32.8654 17.0156H34.478C34.6919 17.0156 34.897 17.1025 35.0482 17.2573C35.1994 17.412 35.2844 17.6218 35.2844 17.8406C35.2844 18.0594 35.1994 18.2693 35.0482 18.424C34.897 18.5787 34.6919 18.6656 34.478 18.6656Z" fill="#A52727"/>
<path d="M4.94724 17.8406C4.94724 18.2964 4.5854 18.6656 4.14092 18.6656H0.00854492V17.0156H4.14092C4.5854 17.0156 4.94724 17.3848 4.94724 17.8406Z" fill="#DC0000"/>
<path d="M3.93934 20.9344C3.93934 21.3902 3.57751 21.7594 3.13302 21.7594H0.00854492V20.1094H3.13302C3.57751 20.1094 3.93934 20.4786 3.93934 20.9344Z" fill="#A52727"/>
</svg>
