<svg width="19" height="27" viewBox="0 0 19 27" fill="none" xmlns="http://www.w3.org/2000/svg">
<path d="M18.7128 14.5008C18.2703 13.7312 17.0219 13.0831 15.3627 14.1768C13.1029 15.716 9.5 15.716 9.5 15.716C9.5 15.716 5.89707 15.716 3.63733 14.1768C1.97809 13.0831 0.729704 13.7312 0.287238 14.5008C-0.502878 15.851 0.382052 16.5126 2.38895 17.6062C4.1114 18.5513 6.46595 18.9024 7.98298 19.0374L6.71879 20.1175C4.91732 21.6432 3.17907 23.1149 1.99389 24.141C1.28279 24.7621 1.28279 25.7477 1.99389 26.3283L2.21512 26.5443C2.92623 27.1519 4.0956 27.1519 4.80671 26.5443L9.5 22.5208C11.3173 24.0465 13.0397 25.5182 14.2407 26.5443C14.9518 27.1519 16.1054 27.1519 16.8323 26.5443L17.0377 26.3283C17.7646 25.7477 17.7646 24.7621 17.0377 24.141L12.3286 20.1175L11.0802 19.0239C12.5815 18.9024 14.9044 18.5378 16.611 17.6062C18.6179 16.5126 19.5029 15.851 18.7128 14.5008ZM9.5 3.46993C11.6807 3.46993 13.4506 4.98212 13.4506 6.83185C13.4506 8.69509 11.6807 10.1938 9.5 10.1938C7.31928 10.1938 5.54942 8.69509 5.54942 6.83185C5.54942 4.98212 7.31928 3.46993 9.5 3.46993ZM9.5 13.6637C13.9247 13.6637 17.496 10.6123 17.496 6.83185C17.496 5.01993 16.6535 3.28222 15.154 2.001C13.6545 0.719783 11.6207 0 9.5 0C7.37933 0 5.34552 0.719783 3.84599 2.001C2.34645 3.28222 1.50402 5.01993 1.50402 6.83185C1.50402 10.6123 5.07535 13.6637 9.5 13.6637Z" fill="white"/>
</svg>
