<svg width="54" height="49" viewBox="0 0 54 49" fill="none" xmlns="http://www.w3.org/2000/svg">
<path d="M23.6251 14.3416C23.4563 14.3417 23.2897 14.3013 23.1377 14.2236C22.9856 14.1458 22.852 14.0327 22.7468 13.8925L13.7474 1.94183C13.3584 1.42621 13.4375 0.674397 13.922 0.262077C14.4081 -0.150243 15.1151 -0.0671068 15.5041 0.448517L24.5036 12.3993C24.8926 12.9149 24.8134 13.6667 24.3272 14.0791C24.1285 14.2495 23.8806 14.3422 23.6251 14.3416ZM29.2513 14.3416C29.0823 14.3417 28.9155 14.3014 28.7631 14.2236C28.6108 14.1459 28.4769 14.0327 28.3713 13.8925L19.3718 1.94183C18.9828 1.42621 19.0619 0.674397 19.5481 0.262077C20.0326 -0.150243 20.7412 -0.0671068 21.1285 0.448517L30.128 12.3993C30.517 12.9149 30.4379 13.6667 29.9533 14.0791C29.7543 14.249 29.5067 14.3416 29.2513 14.3416Z" fill="#444444"/>
<path d="M19.1248 13.145H32.625V16.7303H19.1248V13.145Z" fill="#A52727"/>
<path d="M50.625 43.024H3.37506C1.51445 43.024 0 41.4169 0 39.4387V19.1225C0 17.1452 1.51445 15.5371 3.37506 15.5371H50.625C52.4855 15.5371 54 17.1452 54 19.1225V39.4388C54 41.4169 52.4855 43.024 50.625 43.024Z" fill="#E30613"/>
<path d="M54.0001 20.3164H5.62463C5.0033 20.3164 4.50073 20.8512 4.50073 21.5112V31.0733C4.50065 31.2301 4.52966 31.3854 4.58611 31.5303C4.64257 31.6752 4.72535 31.8068 4.82973 31.9177C4.93411 32.0286 5.05804 32.1165 5.19443 32.1765C5.33083 32.2365 5.47701 32.2673 5.62463 32.2672H54.0001V20.3164Z" fill="#97D3EE"/>
<path d="M10.1252 37.0483C7.02369 37.0483 4.50073 39.7286 4.50073 43.0233C4.50073 46.3198 7.02369 49 10.1252 49C13.2266 49 15.7496 46.3198 15.7496 43.0233C15.7496 39.7286 13.2266 37.0483 10.1252 37.0483ZM41.6256 37.0483C38.5243 37.0483 35.9995 39.7286 35.9995 43.0233C35.9995 46.3198 38.5243 49 41.6256 49C44.727 49 47.2501 46.3198 47.2501 43.0233C47.2501 39.7286 44.727 37.0483 41.6256 37.0483Z" fill="#444444"/>
<path d="M10.9211 42.1802C11.3594 42.6457 11.3594 43.402 10.9211 43.8694C10.8166 43.9805 10.6925 44.0687 10.556 44.1289C10.4194 44.189 10.273 44.22 10.1252 44.22C9.97731 44.22 9.83091 44.189 9.69434 44.1289C9.55777 44.0687 9.4337 43.9805 9.32923 43.8694C8.89091 43.402 8.89091 42.6457 9.32923 42.1802C9.4337 42.069 9.55777 41.9809 9.69434 41.9207C9.83091 41.8606 9.97731 41.8296 10.1252 41.8296C10.273 41.8296 10.4194 41.8606 10.556 41.9207C10.6925 41.9809 10.8166 42.069 10.9211 42.1802Z" fill="#F5F7FA"/>
<path d="M19.1248 32.2725H32.625V43.023H19.1248V32.2725Z" fill="#A52727"/>
<path d="M42.4199 42.1802C42.8599 42.6457 42.8599 43.402 42.4199 43.8694C41.9816 44.3369 41.2698 44.3369 40.8298 43.8694C40.3898 43.402 40.3898 42.6457 40.8298 42.1802C41.2698 41.7127 41.9816 41.7127 42.4199 42.1802Z" fill="#F5F7FA"/>
<path d="M25.3125 20.3154H26.438V43.0222H25.3125V20.3154Z" fill="#A52727"/>
<path d="M10.0525 32.2726L10.0164 20.3166L12.2674 20.3096L12.302 32.2638L10.0525 32.2726ZM40.5182 32.2726L40.482 20.3166L42.733 20.3096L42.7676 32.2638L40.5182 32.2726Z" fill="#6CC6E4"/>
<path d="M19.1245 20.3169H32.6244V43.0235H33.7499V19.1221H18.0005V43.0235H19.1245V20.3169ZM53.9999 34.659H50.625C50.0036 34.659 49.4994 35.193 49.4994 35.853C49.4994 36.5129 50.0036 37.0486 50.625 37.0486H53.9999V34.659Z" fill="#A52727"/>
</svg>
