<svg width="33" height="19" viewBox="0 0 33 19" fill="none" xmlns="http://www.w3.org/2000/svg">
<path d="M32.2526 1.30655C31.9074 2.3735 31.4023 3.38577 30.7536 4.31111L30.7798 4.27121C30.1637 5.2643 29.4279 6.41168 28.5726 7.71335C27.8391 8.74102 27.4509 9.27304 27.4078 9.30939C27.2117 9.54678 27.085 9.83059 27.0406 10.1314L27.0392 10.1407C27.0742 10.4117 27.2043 10.6628 27.4078 10.8522L27.9578 11.4454C30.9008 14.3706 32.5561 16.387 32.9237 17.4944C32.9934 17.6764 33.0158 17.8721 32.989 18.0643C32.9621 18.2566 32.8868 18.4395 32.7697 18.597L32.7724 18.5931C32.634 18.7312 32.4652 18.8374 32.2786 18.904C32.092 18.9705 31.8923 18.9956 31.6943 18.9774H31.6998H28.0747C27.6113 18.9774 27.185 18.8205 26.8508 18.5598L26.8549 18.5625C26.3778 18.1841 25.9398 17.7618 25.5471 17.3016L25.5347 17.2856C24.9012 16.5931 24.3392 16.0101 23.8487 15.5366C22.215 14.0346 21.0094 13.2835 20.232 13.2835C19.981 13.2618 19.7301 13.3253 19.5224 13.4631L19.5265 13.4604C19.4372 13.5687 19.3717 13.6934 19.3339 13.8269C19.296 13.9605 19.2867 14.1 19.3065 14.2372V14.2319C19.253 14.8524 19.2356 15.4754 19.2542 16.0979V16.0753V17.6168C19.2933 17.8009 19.2798 17.9919 19.2154 18.1692C19.151 18.3465 19.038 18.5036 18.8884 18.6236L18.887 18.625C18.1906 18.9293 17.4239 19.0517 16.6633 18.9801L16.6812 18.9814C14.5994 18.9469 12.5668 18.3638 10.8022 17.2949L10.8503 17.3215C8.81558 16.1351 7.07151 14.5355 5.73872 12.6332L5.70159 12.5773C4.40785 10.9087 3.27063 9.13185 2.30346 7.26778L2.2072 7.06296C1.56272 5.85587 0.996426 4.61121 0.511575 3.33619L0.429063 3.09013C0.204266 2.42823 0.0611688 1.74293 0.0027504 1.04853L0 1.01528C0 0.343164 0.408893 0.00710766 1.22668 0.00710766H4.84346C5.20911 -0.0205901 5.57208 0.0862938 5.85973 0.306366L5.85698 0.303706C6.13202 0.594984 6.33555 0.952764 6.43594 1.35178L6.44007 1.36774C7.03758 3.02272 7.76726 4.63027 8.62251 6.17582L8.53038 5.99361C9.14851 7.20797 9.89659 8.3563 10.7623 9.41978L10.7307 9.37855C11.4641 10.2493 12.0362 10.6846 12.4469 10.6846L12.491 10.686C12.5877 10.6861 12.6827 10.6616 12.7665 10.6149C12.8502 10.5682 12.9198 10.501 12.9682 10.42L12.9695 10.4173C13.1012 10.084 13.1534 9.72615 13.1222 9.37057V9.37855V4.21934C13.0965 3.63438 12.9467 3.06079 12.6821 2.53418L12.6931 2.55945C12.5327 2.22477 12.3244 1.91359 12.0743 1.63507L12.0784 1.64039C11.8478 1.41773 11.6978 1.12895 11.6507 0.8171L11.6493 0.80912C11.6493 0.583014 11.7566 0.379518 11.9244 0.246514L11.9257 0.245184C12.0984 0.0922548 12.3242 0.00774166 12.5583 0.0084376H18.2709C18.4143 -0.00774822 18.5596 0.0107571 18.6938 0.0622929C18.828 0.113829 18.9468 0.196782 19.0397 0.303706L19.041 0.305036C19.2147 0.615433 19.2907 0.968195 19.2597 1.31985V1.3132V8.19349C19.2378 8.46486 19.3031 8.73614 19.4467 8.97023L19.444 8.96491C19.4943 9.03771 19.5625 9.09739 19.6423 9.13868C19.7222 9.17997 19.8114 9.2016 19.9019 9.20166C20.1338 9.18708 20.3589 9.11268 20.551 8.98619L20.5469 8.98885C20.9209 8.74014 21.2427 8.45684 21.5219 8.1363L21.5274 8.12965C22.377 7.19992 23.1387 6.19838 23.8034 5.13706L23.857 5.04396C24.3301 4.28584 24.8416 3.35215 25.3051 2.39319L25.3903 2.19768L26.0037 1.01129C26.1117 0.704533 26.32 0.440115 26.5971 0.257991C26.8742 0.0758671 27.2051 -0.0140642 27.5398 0.00178726H27.5357H31.1538C32.1311 0.00178726 32.4978 0.43671 32.254 1.30655H32.2526Z" fill="white"/>
</svg>
